<svg xmlns="http://www.w3.org/2000/svg" width="48" height="48" viewBox="0 0 48 48"><g fill="none" fill-rule="evenodd"><circle cx="24" cy="24" r="24" fill="#F3E5F0"/><path fill="#A891A2" d="M19.333 47.546a23.94 23.94 0 01-11.91-6.191c.555-1.93 1.659-3.7 3.311-5.309 3.072-2.991 6.85-4.083 12.648-4.083 5.797 0 8.657-.618 13.787 4.083 1.738 1.594 2.87 3.368 3.394 5.323a23.94 23.94 0 01-11.896 6.177h-9.334zm-3.651-30.844c.284-.99 2.23-6.2 8.2-6.2 5.97 0 8.105 5.32 8.3 6.2.088.4.247 1.503.277 3.312a38.288 38.288 0 01-.077 3.319c.046 3.446-2.764 5.168-8.43 5.168-5.667 0-8.524-1.722-8.57-5.168a34.978 34.978 0 01-.064-3.323c.045-1.749.233-2.851.364-3.308z"/></g></svg>